<?xml version="1.0" encoding="utf-8"?>
<!-- Svg Vector Icons : http://www.onlinewebfonts.com/icon -->
<!DOCTYPE svg PUBLIC "-//W3C//DTD SVG 1.1//EN" "http://www.w3.org/Graphics/SVG/1.1/DTD/svg11.dtd">
<svg version="1.1" xmlns="http://www.w3.org/2000/svg" xmlns:xlink="http://www.w3.org/1999/xlink" x="0px" y="0px" viewBox="0 0 256 256" enable-background="new 0 0 256 256" xml:space="preserve">
<metadata> Svg Vector Icons : http://www.onlinewebfonts.com/icon </metadata>
<g><g><path fill="#000000" d="M52.9,125.6c0,3.7,1.5,7.4,4.2,10c2.6,2.6,6.3,4.2,10,4.2s7.4-1.5,10-4.2c2.6-2.7,4.2-6.3,4.2-10c0-3.7-1.5-7.4-4.2-10c-2.6-2.6-6.3-4.2-10-4.2s-7.4,1.5-10,4.2C54.4,118.2,52.9,121.9,52.9,125.6L52.9,125.6z"/><path fill="#000000" d="M52.9,174.5c0,3.7,1.5,7.4,4.2,10c2.6,2.6,6.3,4.2,10,4.2s7.4-1.5,10-4.2c2.6-2.6,4.2-6.3,4.2-10c0-3.7-1.5-7.4-4.2-10c-2.6-2.6-6.3-4.2-10-4.2s-7.4,1.5-10,4.2C54.4,167.1,52.9,170.8,52.9,174.5L52.9,174.5z"/><path fill="#000000" d="M104.4,125.3c0,3.7,1.5,7.4,4.2,10c2.6,2.6,6.3,4.2,10,4.2s7.4-1.5,10-4.2c2.6-2.6,4.2-6.3,4.2-10c0-3.7-1.5-7.4-4.2-10c-2.6-2.6-6.3-4.2-10-4.2s-7.4,1.5-10,4.2C105.9,117.9,104.4,121.6,104.4,125.3L104.4,125.3z"/><path fill="#000000" d="M104.4,174.2c0,3.7,1.5,7.4,4.2,10c2.6,2.7,6.3,4.2,10,4.2s7.4-1.5,10-4.2c2.6-2.6,4.2-6.3,4.2-10c0-3.7-1.5-7.4-4.2-10c-2.6-2.6-6.3-4.2-10-4.2s-7.4,1.5-10,4.2C105.9,166.8,104.4,170.5,104.4,174.2L104.4,174.2z"/><path fill="#000000" d="M95.6,47.7h50.6v15.1H95.6V47.7L95.6,47.7z"/><path fill="#000000" d="M166.2,88c5.5,0,10.3-4.5,10.3-10V32.5c0-5.5-4.8-10-10.3-10c-5.6,0-10,4.5-10,10v45.5C156.1,83.5,160.6,88,166.2,88L166.2,88z"/><path fill="#000000" d="M75.3,88c5.5,0,10.3-4.5,10.3-10V32.5c0-5.5-4.8-10-10.3-10c-5.5,0-10,4.5-10,10v45.5C65.3,83.5,69.8,88,75.3,88L75.3,88z"/><path fill="#000000" d="M216.7,70.7v27.6h15.1V71.5c0-13.1-11.9-23.8-26.5-23.8h-18.8v13.5h19.5C211.9,61.2,216.7,65.6,216.7,70.7L216.7,70.7z"/><path fill="#000000" d="M216.8,176.5v31.1h0v2.9c0,5.2-4.8,9.6-10.6,9.6H35.6c-5.7,0-10.6-4.4-10.6-9.6v-94.8h0v-13.6h0V70.7c0-5.2,4.8-9.6,10.6-9.6h19.7V47.7H36.5C21.9,47.7,10,58.4,10,71.5v138.2c0,13.1,11.5,23.8,26.1,23.8h169.4c14.6,0,26.5-10.7,26.5-23.8v-33.3L216.8,176.5L216.8,176.5L216.8,176.5z"/><path fill="#000000" d="M234,116.6l-46.8,46.8l-18.5-18.5c-2.8-2.8-7.2-2.8-10,0c-2.8,2.8-2.8,7.2,0,10l22.1,22.1c1.5,1.5,4.2,2.1,6.4,2.1c2.2,0.1,4.8-0.6,6.3-2.1l50.4-50.4c2.8-2.8,2.8-7.2,0-10C241.2,113.8,236.7,113.8,234,116.6L234,116.6L234,116.6z"/><path fill="#000000" d="M224.3,105.5c4.2,0,7.6-3.2,7.6-7.2h-15.1C216.7,102.3,220.2,105.5,224.3,105.5L224.3,105.5z"/><path fill="#000000" d="M224.4,169.3c-4.2,0-7.6,3.2-7.6,7.2h15.1C231.9,172.5,228.5,169.3,224.4,169.3L224.4,169.3z"/></g></g>
</svg>