<?xml version="1.0" encoding="utf-8"?>
<!-- Svg Vector Icons : http://www.onlinewebfonts.com/icon -->
<!DOCTYPE svg PUBLIC "-//W3C//DTD SVG 1.1//EN" "http://www.w3.org/Graphics/SVG/1.1/DTD/svg11.dtd">
<svg version="1.1" xmlns="http://www.w3.org/2000/svg" xmlns:xlink="http://www.w3.org/1999/xlink" x="0px" y="0px" viewBox="0 0 256 256" enable-background="new 0 0 256 256" xml:space="preserve">
<metadata> Svg Vector Icons : http://www.onlinewebfonts.com/icon </metadata>
<g><g><path fill="#000000" d="M234.9,66.7c-7.3,7.5-97,95.9-101.7,100.4c-0.7,0.7-1.6,1.2-2.6,1.5c-7.4,2.2-52.2,16.7-52.6,16.8c-0.6,0.2-1.3,0.3-1.9,0.3c-1.6,0-3.2-0.6-4.4-1.8c-1.6-1.6-2.2-4-1.6-6.3c0.1-0.4,13.4-43.8,16-53.6c0.3-1.1,0.8-2,1.6-2.8c0,0,97.6-97.5,101.1-100.9c2.4-2.4,11.4-10.3,23.6-10.3c7.8,0,15.2,3.2,21.8,9.6c7.5,7.2,11.5,15,11.6,23C246.1,50.9,242.4,58.9,234.9,66.7z M224.2,30.3c-3.9-3.7-7.7-5.5-11.6-5.5c-7,0-12.6,5.4-13.2,6c-3.2,3.1-86.8,86.7-99.5,99.3c-2.1,7.5-6.9,23.2-10.8,36.3c12.3-4,28.5-9.2,35.3-11.3l4.5-4.5c59.2-58.3,91.3-90,95.4-94.2c4.7-4.8,7-9.4,7-13.5C231.2,39,228.8,34.8,224.2,30.3z M24.7,47v184.1h169.4v-93.8l14.7-14.1v107.9c0,8.1-6.6,14.7-14.7,14.7H24.7c-8.1,0-14.7-6.6-14.7-14.7V47c0-8.1,6.6-14.7,14.7-14.7h118l0.4,0.4L128.2,47H24.7z"/></g></g>
</svg>