<?xml version="1.0" encoding="utf-8"?>
<!-- Svg Vector Icons : http://www.onlinewebfonts.com/icon -->
<!DOCTYPE svg PUBLIC "-//W3C//DTD SVG 1.1//EN" "http://www.w3.org/Graphics/SVG/1.1/DTD/svg11.dtd">
<svg version="1.1" xmlns="http://www.w3.org/2000/svg" xmlns:xlink="http://www.w3.org/1999/xlink" x="0px" y="0px" viewBox="0 0 256 256" enable-background="new 0 0 256 256" xml:space="preserve">
<metadata> Svg Vector Icons : http://www.onlinewebfonts.com/icon </metadata>
<g><g><g><path fill="#000000" d="M11.3,11.4c-0.9,1-1.3,1.8-1.3,2.9c0,1.4,4.1,5.7,56.1,57.6l56.1,56.1l-56.1,56.1C14.1,236,10,240.3,10,241.7c0,3,3.4,5.1,6.1,3.7c0.6-0.3,25.9-25.5,56.4-56.1l55.4-55.6l55.1,55.4c30.3,30.5,55.7,55.7,56.4,56.1c2,1.1,3.5,0.8,5.1-0.6c0.9-1,1.3-1.8,1.3-2.9c0-1.4-4.1-5.7-56.1-57.6L133.7,128l56.2-56.2L246,15.7l-0.3-1.8c-0.6-3.3-3.7-4.8-6.4-3c-0.6,0.4-26,25.7-56.3,56.1L128,122.3L71.9,66.1c-52-51.9-56.2-56.1-57.6-56.1C13.1,10.1,12.3,10.5,11.3,11.4z"/></g></g></g>
</svg>