<?xml version="1.0" encoding="utf-8"?>
<!-- Svg Vector Icons : http://www.onlinewebfonts.com/icon -->
<!DOCTYPE svg PUBLIC "-//W3C//DTD SVG 1.1//EN" "http://www.w3.org/Graphics/SVG/1.1/DTD/svg11.dtd">
<svg version="1.1" xmlns="http://www.w3.org/2000/svg" xmlns:xlink="http://www.w3.org/1999/xlink" x="0px" y="0px" viewBox="0 0 256 256" enable-background="new 0 0 256 256" xml:space="preserve">
<metadata> Svg Vector Icons : http://www.onlinewebfonts.com/icon </metadata>
<g><g><path fill="#000000" d="M246,246H10V10h141.6v11.8H21.8v212.4h212.4V128H246V246z"/><path fill="#000000" d="M47.3,225.1l4.3-13.1c2.9-8.7,36.8-75.6,55.7-98.6c23.1-28.2,51.3-52.4,86.1-74c10.1-6.3,33.1-18.4,34.1-18.9l11-5.8L236,26.9c-1,4.8-9.5,47.2-11.2,53.2c-1.1,4-3.7,7-7.5,8.8c-5.1,2.4-12.6,6-19.5,9.3c3.7,0.1,6.9,0,8.8,0l9.9-0.4l-4.4,8.9c-1,2-9.7,19.5-18,25.9c-3.7,2.9-7.2,5-12.6,5.9l-6.7,1.1c-2.7,0.4-6.1,1-9.6,1.5l13.9,5.8l-6.1,6.2c-7.3,7.5-26.7,24.3-48.4,18.8c-6.1-1.5-10.9-2.2-15.3-2.3c-2.9,0-5,0.8-6.7,2.7c-5.4,6-11.6,16.1-13.2,25.1c-0.7,3.5-1.9,7.1-6.7,9.7l-6.1,3.3c-5.4,2.9-11,5.9-16.9,8.7L47.3,225.1z M222,36.8c-7.5,4-17,9.2-22.3,12.6c-33.7,20.9-61,44.3-83.2,71.4c-13.7,16.8-35.5,57.5-46.6,79.9c0.4-0.2,0.9-0.5,1.3-0.7l6.2-3.3c0.3-0.1,0.4-0.4,0.6-1.4c2.2-12.1,10.1-24.2,16.1-30.9c4-4.4,9.4-6.6,15.6-6.6c5.4,0.1,11,0.9,18.1,2.7c11.5,2.9,22.9-3.6,30.5-9.6l-31.8-13.3l16.6-4.5c3-0.8,15.4-2.8,30.1-5.2l6.7-1.1c2.6-0.4,4.4-1.3,7.2-3.5c3-2.3,6.8-7.9,10-13.3c-6.7-0.2-15.2-0.9-21.2-3.1l-12.5-4.5l11.7-6.2c1.4-0.8,26.5-12.8,37.3-17.9c0.8-0.4,1-0.7,1.2-1.4C214.5,73.3,218.8,52.4,222,36.8z"/><path fill="#000000" d="M234.2,128c0,3.3,2.7,5.9,5.9,5.9c3.3,0,5.9-2.6,5.9-5.9c0-3.3-2.6-5.9-5.9-5.9C236.8,122.1,234.2,124.7,234.2,128z"/><path fill="#000000" d="M145.7,15.9c0,3.3,2.7,5.9,5.9,5.9c3.3,0,5.9-2.6,5.9-5.9s-2.6-5.9-5.9-5.9C148.3,10,145.7,12.6,145.7,15.9z"/></g></g>
</svg>