<?xml version="1.0" encoding="utf-8"?>
<!-- Svg Vector Icons : http://www.onlinewebfonts.com/icon -->
<!DOCTYPE svg PUBLIC "-//W3C//DTD SVG 1.1//EN" "http://www.w3.org/Graphics/SVG/1.1/DTD/svg11.dtd">
<svg version="1.1" xmlns="http://www.w3.org/2000/svg" xmlns:xlink="http://www.w3.org/1999/xlink" x="0px" y="0px" viewBox="0 0 256 256" enable-background="new 0 0 256 256" xml:space="preserve">
<metadata> Svg Vector Icons : http://www.onlinewebfonts.com/icon </metadata>
<g><g><path fill="#000000" d="M214.6,123.4c-2.6,0-4.6,2.1-4.6,4.6c0,6.8-0.6,13.6-1.9,20.2c-9,46.1-48.3,79.6-93.4,79.6c-20.4,0-39.8-6.6-56.2-19.2l-0.2-0.2l-0.2-0.1c-4.4-2.6-14.9-5.3-22.6,3.2c-1.7,1.9-1.6,4.8,0.3,6.5c1.9,1.7,4.8,1.6,6.5-0.3c4.2-4.6,9.7-2.2,10.9-1.5c18,13.7,39.2,20.9,61.5,20.9c12.4,0,24.5-2.2,36-6.6c11.1-4.3,21.4-10.4,30.6-18.3c18.4-15.8,31.1-37.9,35.9-62.1c1.4-7.2,2.1-14.5,2.1-21.9C219.2,125.5,217.1,123.4,214.6,123.4z"/><path fill="#000000" d="M239.7,44.4h-53.2c-2.6,0-4.6,2.1-4.6,4.6c0,2.6,2.1,4.6,4.6,4.6h44.1L116.8,167.5l-24.3-24.3c-2.5-2.5-6.5-2.5-8.9,0l-45,45C26,170.9,19.2,149.8,19.2,128c0-55,42.8-99.8,95.4-99.8c7.6,0,15.1,0.9,22.4,2.8c2.5,0.6,5-0.9,5.6-3.3c0.6-2.5-0.9-5-3.3-5.6c-8-2-16.3-3.1-24.7-3.1c-14.1,0-27.9,2.9-40.8,8.6C61.4,33.1,50.2,41,40.6,51C31,61,23.4,72.7,18.2,85.7C12.7,99.1,10,113.3,10,128c0,13.1,2.2,25.9,6.5,38c4.2,11.8,10.3,22.6,18.1,32.2c0.9,1.1,2.2,1.7,3.6,1.7c1,0,2-0.3,2.9-1c0.6-0.4,1-1,1.3-1.6L88,151.7l25.5,25.5c1.8,1.8,4.7,1.8,6.5,0L236.8,60.5v43.6c0,2.6,2.1,4.6,4.6,4.6s4.6-2.1,4.6-4.6V50.7C246,47.3,243.2,44.4,239.7,44.4z"/></g></g>
</svg>