<?xml version="1.0" encoding="utf-8"?>
<!-- Svg Vector Icons : http://www.onlinewebfonts.com/icon -->
<!DOCTYPE svg PUBLIC "-//W3C//DTD SVG 1.1//EN" "http://www.w3.org/Graphics/SVG/1.1/DTD/svg11.dtd">
<svg version="1.1" xmlns="http://www.w3.org/2000/svg" xmlns:xlink="http://www.w3.org/1999/xlink" x="0px" y="0px" viewBox="0 0 256 256" enable-background="new 0 0 256 256" xml:space="preserve">
<metadata> Svg Vector Icons : http://www.onlinewebfonts.com/icon </metadata>
<g><g><path fill="#000000" d="M128,10C62.8,10,10,62.8,10,128c0,65.2,52.8,118,118,118c65.2,0,118-52.8,118-118C246,62.8,193.2,10,128,10z M128,230.8c-56.8,0-102.8-46-102.8-102.8c0-1.3,0-2.6,0.1-3.9c8.1-4.2,23.8-44.6,30.4-38c6.6,6.6,4.1,22.3,15.2,22.8C82,109.4,99.2,83.5,109,86.1c9.8,2.6-4,33,7.6,30.4c11.6-2.6,29.4-34.5,38.1-30.4c8.7,4,1.3,24.3,15.2,22.8c14-1.5,21.8-20.8,38.1-22.8c6.9-0.9,11.6,0.8,14.9,2.3c5.1,12.2,7.9,25.6,7.9,39.6C230.8,184.8,184.8,230.8,128,230.8z"/><path fill="#000000" d="M167.5,150.8c6.3,0,11.4-5.1,11.4-11.4c0-6.3-5.1-11.4-11.4-11.4c-6.3,0-11.4,5.1-11.4,11.4C156.1,145.7,161.2,150.8,167.5,150.8z"/><path fill="#000000" d="M129.4,203.7c-33.4,0-51.9-15.7-54.4-31.1c-0.2,1.3-0.3,2.8-0.3,4.4c0,21,19,38.5,54.7,38.5s54.7-17.5,54.7-38.5c0-1.4-0.1-2.7-0.4-3.9C180.8,188.2,162.5,203.7,129.4,203.7z"/><path fill="#000000" d="M91.4,150.8c6.3,0,11.4-5.1,11.4-11.4c0-6.3-5.1-11.4-11.4-11.4c-6.3,0-11.4,5.1-11.4,11.4C80,145.7,85.1,150.8,91.4,150.8z"/></g></g>
</svg>