<?xml version="1.0" encoding="utf-8"?>
<!-- Svg Vector Icons : http://www.onlinewebfonts.com/icon -->
<!DOCTYPE svg PUBLIC "-//W3C//DTD SVG 1.1//EN" "http://www.w3.org/Graphics/SVG/1.1/DTD/svg11.dtd">
<svg version="1.1" xmlns="http://www.w3.org/2000/svg" xmlns:xlink="http://www.w3.org/1999/xlink" x="0px" y="0px" viewBox="0 0 256 256" enable-background="new 0 0 256 256" xml:space="preserve">
<metadata> Svg Vector Icons : http://www.onlinewebfonts.com/icon </metadata>
<g><g><path fill="#000000" d="M164.9,176.5v9h-5.1v-9.4c-12.8-0.7-20.5-7.8-23.1-21.3l7.2-2.5c1.4,10.6,6.7,16.4,15.9,17.4v-28.2c-14.7-3.6-21.6-10.1-20.6-19.5c0.7-11.6,7.6-18,20.6-19.2v-7.6h5.1v7.9c11.8,1,18.7,7.4,20.6,19.2l-7.6,2.5c-1.4-8.4-5.8-13.4-13-14.8v24.9c15.7,3.9,23.1,11.1,22.4,21.7C186.6,168.6,179.1,175.2,164.9,176.5z M159.8,133.8v-23.9c-8.4,1-12.9,4.9-13.4,11.9C146.2,127.2,150.6,131.1,159.8,133.8z M164.9,142.8v26.8c9.4-0.5,14.4-4.9,14.8-13.4C180.4,149.9,175.5,145.5,164.9,142.8z"/><path fill="#000000" d="M162,224.3c-22.4,0-43.5-8.7-59.4-24.6C86.7,183.8,78,162.7,78,140.3c0-22.4,8.7-43.5,24.6-59.4c15.9-15.9,37-24.6,59.4-24.6c22.4,0,43.5,8.7,59.4,24.6c15.9,15.9,24.6,37,24.6,59.4c0,22.4-8.7,43.5-24.6,59.4C205.5,215.6,184.4,224.3,162,224.3z M162,61.4c-43.5,0-78.9,35.4-78.9,78.9c0,43.5,35.4,78.9,78.9,78.9c43.5,0,78.9-35.4,78.9-78.9C240.9,96.8,205.5,61.4,162,61.4z"/><path fill="#000000" d="M118.6,34.1c0,1.3-2.4,2.4-5.4,2.4H15.4c-3,0-5.4-1.1-5.4-2.4l0,0c0-1.3,2.4-2.4,5.4-2.4h97.7C116.2,31.7,118.6,32.8,118.6,34.1L118.6,34.1z"/><path fill="#000000" d="M96.9,66c0,1.3-2.4,2.4-5.4,2.4h-76c-3,0-5.4-1.1-5.4-2.4l0,0c0-1.3,2.4-2.4,5.4-2.4h76C94.4,63.7,96.9,64.7,96.9,66L96.9,66z"/><path fill="#000000" d="M75.1,99.1c0,1.3-2.4,2.4-5.4,2.4H15.4c-3,0-5.4-1.1-5.4-2.4l0,0c0-1.3,2.4-2.4,5.4-2.4h54.3C72.7,96.7,75.1,97.8,75.1,99.1L75.1,99.1z"/><path fill="#000000" d="M64.3,131.9c0,1.3-2.4,2.4-5.4,2.4H15.4c-3,0-5.4-1.1-5.4-2.4l0,0c0-1.3,2.4-2.4,5.4-2.4h43.4C61.8,129.6,64.3,130.6,64.3,131.9L64.3,131.9z"/><path fill="#000000" d="M75.1,165c0,1.3-2.4,2.4-5.4,2.4H15.4c-3,0-5.4-1.1-5.4-2.4l0,0c0-1.3,2.4-2.4,5.4-2.4h54.3C72.7,162.7,75.1,163.7,75.1,165L75.1,165z"/></g></g>
</svg>