<?xml version="1.0" encoding="utf-8"?>
<!-- Svg Vector Icons : http://www.onlinewebfonts.com/icon -->
<!DOCTYPE svg PUBLIC "-//W3C//DTD SVG 1.1//EN" "http://www.w3.org/Graphics/SVG/1.1/DTD/svg11.dtd">
<svg version="1.1" xmlns="http://www.w3.org/2000/svg" xmlns:xlink="http://www.w3.org/1999/xlink" x="0px" y="0px" viewBox="0 0 256 256" enable-background="new 0 0 256 256" xml:space="preserve">
<metadata> Svg Vector Icons : http://www.onlinewebfonts.com/icon </metadata>
<g><g><path fill="#000000" d="M219.1,202.8l-19.4-34.2V99.7c0-26.4-19.8-55-48.8-65.5c-1.4-14-10.8-24.2-23-24.2c-12.2,0-21.6,10.2-23,24.2c-28.9,10.5-48.8,39-48.8,65.5v68.9l-20.4,35.9c-1.3,2.4-1.3,5.3,0,7.6c1.3,2.4,3.9,3.8,6.6,3.8h48.5c3.6,17.2,18.8,30.2,37,30.2s33.5-13,37-30.2h48.5h0.3c4.2,0,7.6-3.4,7.6-7.6C221.3,206,220.5,204.1,219.1,202.8 M127.8,25.3c2.7,0,5,2.1,6.4,5.2c-2.1-0.2-4.2-0.7-6.4-0.7c-2.2,0-4.3,0.5-6.4,0.7C122.9,27.4,125.1,25.3,127.8,25.3 M127.8,230.7c-9.7,0-17.8-6.2-21-14.9h41.9C145.6,224.5,137.5,230.7,127.8,230.7 M55.4,200.6l14.9-26.2c0.7-1.1,1-2.5,1-3.8V99.7c0-25.8,24.1-54.6,56.5-54.6c32.3,0,56.5,28.8,56.5,54.6v70.9c0,1.3,0.3,2.6,1,3.8l14.9,26.2H55.4L55.4,200.6z"/></g></g>
</svg>