<?xml version="1.0" encoding="utf-8"?>
<!-- Svg Vector Icons : http://www.onlinewebfonts.com/icon -->
<!DOCTYPE svg PUBLIC "-//W3C//DTD SVG 1.1//EN" "http://www.w3.org/Graphics/SVG/1.1/DTD/svg11.dtd">
<svg version="1.1" xmlns="http://www.w3.org/2000/svg" xmlns:xlink="http://www.w3.org/1999/xlink" x="0px" y="0px" viewBox="0 0 256 256" enable-background="new 0 0 256 256" xml:space="preserve">
<metadata> Svg Vector Icons : http://www.onlinewebfonts.com/icon </metadata>
<g><g><g><path fill="#000000" d="M74.9,79.3C64.3,81.9,55.9,91,54.2,101.7l-0.6,3.9l-3.1-1.7c-10.6-5.8-23.8-3.9-32.5,4.7c-10.7,10.7-10.7,27.9,0,38.6c8.6,8.6,21.8,10.5,32.5,4.7l3.1-1.7l0.6,3.9c2.5,15.6,18.3,26.3,33.3,22.5c8.3-2.1,14.7-7.3,18.2-14.7c4-8.4,3.9-16.8-0.4-24.9c-0.8-1.4-1.4-2.7-1.5-3c-0.1-0.2,20.7-0.4,46.2-0.4h46.4v5.7c0,6.6,0.7,8.7,3.3,9.9c2.1,1,2.5,1,4.6,0c2.7-1.2,3.3-3.3,3.3-9.9v-5.7h5.4h5.4v11.9v11.9l1.8,1.8c1.2,1.2,2.2,1.8,3.4,1.8c2.1,0,4.4-1.3,5.1-2.9c0.4-0.8,0.6-5.6,0.6-12.8v-11.6h5.7c6.2,0,8.6-0.6,10-2.6c1.3-2,1.1-4.8-0.7-6.7l-1.5-1.7l-69.6-0.2c-38.3-0.1-69.5-0.3-69.4-0.5c0.1-0.2,0.8-1.5,1.5-2.9c4.7-9.1,4.2-19.8-1.4-28.3C97.9,81.3,85.8,76.7,74.9,79.3z M88.2,91.1c10.4,4.7,12.7,18.8,4.4,26.6c-3.1,2.9-6,4.2-10.5,4.5c-5,0.3-8.8-1.1-12.1-4.3c-6.6-6.4-6.9-16.2-0.8-23.1C73.9,89.7,81.7,88.1,88.2,91.1z M44.3,113.1c3.2,1.5,6.4,4.6,8,7.9c1,2.1,1.2,3.4,1.2,7c0.1,4-0.1,4.6-1.7,7.6c-2,3.6-3.6,5.2-7.5,7.2c-2.3,1.2-3.2,1.4-7,1.3c-3.6,0-4.9-0.3-7-1.2c-13.4-6.5-12.3-25.5,1.8-30.6C35.4,111.1,41,111.5,44.3,113.1z M87,134.5c3.7,1.3,7.6,5.1,9.3,9c1.2,2.7,1.4,3.7,1.2,7.1c-0.4,9.1-7.1,15.7-16.1,15.7c-7.8,0.1-14.1-4.9-16.1-12.7c-1.4-5.5,0.3-11.3,4.7-15.6C74.3,133.9,81.2,132.5,87,134.5z"/></g></g></g>
</svg>