<?xml version="1.0" encoding="utf-8"?>
<!-- Svg Vector Icons : http://www.onlinewebfonts.com/icon -->
<!DOCTYPE svg PUBLIC "-//W3C//DTD SVG 1.1//EN" "http://www.w3.org/Graphics/SVG/1.1/DTD/svg11.dtd">
<svg version="1.1" xmlns="http://www.w3.org/2000/svg" xmlns:xlink="http://www.w3.org/1999/xlink" x="0px" y="0px" viewBox="0 0 256 256" enable-background="new 0 0 256 256" xml:space="preserve">
<metadata> Svg Vector Icons : http://www.onlinewebfonts.com/icon </metadata>
<g><g><path fill="#000000" d="M85,151.6"/><path fill="#000000" d="M204.7,246H51.3c-13,0-23.6-10.6-23.6-23.6V33.6c0-13,10.6-23.6,23.6-23.6h94.4h11.8l70.8,70.8v141.6C228.3,235.4,217.7,246,204.7,246z M204.7,92.6h-35.4c-13,0-23.6-10.6-23.6-23.6V33.6H51.3v188.8h153.4V92.6z M132.6,104.4l36.7,94.4h-31.6l-4.9-15.6H98.6l-4.7,15.6H63.1l36.7-94.4H132.6z M126.6,162.8l-10.8-33.9l-10.6,33.9H126.6z M169.3,151.6v-11.8h-11.8V128h11.8v-11.8h11.8V128h11.8v11.8h-11.8v11.8H169.3z"/></g></g>
</svg>