<?xml version="1.0" encoding="utf-8"?>
<!-- Svg Vector Icons : http://www.onlinewebfonts.com/icon -->
<!DOCTYPE svg PUBLIC "-//W3C//DTD SVG 1.1//EN" "http://www.w3.org/Graphics/SVG/1.1/DTD/svg11.dtd">
<svg version="1.1" xmlns="http://www.w3.org/2000/svg" xmlns:xlink="http://www.w3.org/1999/xlink" x="0px" y="0px" viewBox="0 0 256 256" enable-background="new 0 0 256 256" xml:space="preserve">
<metadata> Svg Vector Icons : http://www.onlinewebfonts.com/icon </metadata>
<g><g><g><path fill="#000000" d="M77.6,50.7l-9.6,4.8l-2.4-2.7c-1.2-1.5-3-3.5-3.9-4.4L60,46.7L39.2,64.9c-11.5,10-21.1,18.3-21.3,18.5c-0.2,0.2,0.9,1.9,2.6,3.9c1.6,1.9,3,3.5,3,3.7c0,0.1-3,3.9-6.7,8.3l-6.7,8.1l1.1,0.8c0.6,0.4,17.7,14.7,38.2,31.8l37.1,31l5.8,11.4l5.8,11.3l4.9-2.4l4.9-2.5l3.9,3.2c2.1,1.8,4,3,4.1,2.8c0.1-0.2,2.9-3.5,6.1-7.4c3.2-3.8,6-7,6.2-7c0.2,0,1.8,1.1,3.5,2.5c3.8,3,7.4,4.9,9.5,4.9c0.9,0,3.5-0.4,5.8-0.9c2.3-0.5,6.6-1.3,9.7-1.8c3.9-0.7,5.7-1.2,6.2-1.8c0.6-0.8,0.9-0.7,4.8,0.6c15.1,4.9,25,4.6,34.1-0.8c2.5-1.5,2.9-1.6,5.3-1.4c3.9,0.5,4.2,0.6,4.2,2.1c0,1.9,1.3,7.7,2,9.1c1.1,2,2.6,2.5,7.4,2.2c2.3-0.1,5.1-0.4,6.1-0.5l1.9-0.2l0.3,2.2c0.6,4,2.1,11.2,2.7,12.4c0.8,1.8,1.2,1.9,12.7,0.4l1.9-0.2v-37.6v-37.5h-8.2c-9,0-9.9,0.2-11.4,2.6l-0.9,1.5l-6.4,0c-6.3,0-6.4,0-7.5,1.2c-0.6,0.7-1.2,1.9-1.4,2.8c-0.3,1.4-0.4,1.6-2,1.6c-2.7,0-9.5-1.3-13.3-2.6c-5.8-1.9-20-9.1-35.3-17.7c-9.8-5.5-12.5-6.6-15.9-6.6c-3.4,0-7.6,1.5-13.5,4.4c-3.5,1.8-3.6,1.8-4.5,1c-0.5-0.5-9.3-17.8-19.6-38.5L87.2,45.9L77.6,50.7z M90.2,55.5c1.8,3.6,11.8,24,22.5,45.3c10.6,21.3,19.5,39.2,19.7,39.8c1.3,4.2-3.4-4.8-22.8-44C89.3,55.8,87.5,52.2,86.2,51.9c-0.7-0.2-1.7-0.3-2.2-0.2s-10,4.7-21,10.2c-18,9-20.2,10.2-20.7,11.5c-0.7,1.8-2.5-2,29.7,62.8c16.2,32.5,25.5,50.8,26.2,51.2c0.6,0.4,1.4,0.7,1.8,0.7s10.1-4.7,21.5-10.4c19-9.5,20.7-10.5,21.2-11.8c0.4-1.2,0.6-1.4,1.3-1c2.4,1.3,1.8,1.8-8.8,6.9c-5.6,2.8-16.3,8-23.7,11.7l-13.5,6.8l-12.5-25.3c-6.9-13.9-20-40.4-29.3-59L39.6,72.5l23.6-11.7C76.2,54.3,86.8,49,86.9,49C87,49,88.5,51.9,90.2,55.5z M65.8,56.4c0,0.4-0.6,0-1.6-1c-1.8-1.9-3-2.7-4.3-2.7c-0.5,0-5.2,3.7-11,8.7c-5.6,4.8-10.6,8.8-11.1,9c-0.5,0.1-1,0.6-1,0.9s-1.9,2.2-4.2,4.2c-8.1,7-9.1,8-9.1,9.7c0,1.4,2.7,4.7,24.6,29.9c13.6,15.6,24.9,28.8,25.2,29.4c0.5,0.9,0.4,0.8-0.8-0.3c-1-1-35.9-41.2-51.1-58.9c-0.6-0.7,1.2-2.4,19.3-18.1l20-17.3l2.6,2.9C64.6,54.4,65.8,56,65.8,56.4z M83.2,56c0.9,1.1,17.3,34,17.1,34.3c-0.1,0.1-1.2-0.2-2.4-0.6c-3-0.9-10.7-1.1-13.8-0.2c-5.5,1.6-11.3,5.3-14.6,9.4c-1.7,2.1-3.7,5.9-4.7,8.8c-0.2,0.7-2.4-3.1-8.8-16.1c-7.1-14.1-8.5-17.2-8.4-18.7l0.1-1.7l16.1-8.2c8.9-4.5,16.7-8.2,17.3-8.2C81.7,55,82.6,55.4,83.2,56z M59.5,58.2c0.5,0.5,0.8,1,0.7,1c-1.6,1-15.7,7.7-15.2,7.1c0.4-0.3,3-2.7,5.9-5.1c4.6-3.9,5.4-4.5,6.5-4.2C58.1,57.2,59.1,57.8,59.5,58.2z M46.2,89.9c4.6,9.4,8.3,17.2,8.2,17.5c-0.1,0.3-0.3,1.8-0.5,3.3l-0.3,2.8L40.8,98.7C30.4,86.7,28,83.7,28,82.6c0-1.2,0.8-2,4.7-5.5c2.6-2.3,4.7-4.1,4.8-4.1C37.7,73,41.5,80.6,46.2,89.9z M97.7,91.4c1.5,0.5,3.7,1.5,4.9,2.3c9.1,5.9,11.8,17.1,6.6,27.5c-1.7,3.4-7.1,8.5-10.7,10.3c-6.5,3.1-13.7,3.7-19.4,1.5c-1.2-0.4-1.2-0.5-0.7-2.8l0.5-2.4l2.3,2.3c1.3,1.3,2.7,2.4,3.1,2.4c0.4,0,1.9-0.6,3.4-1.4c1.4-0.7,3.5-1.6,4.5-1.9c1.8-0.6,3.8-2.2,5.8-4.9c0.6-0.8,2.7-2.6,4.6-4c3.1-2.2,6.5-6.1,6.5-7.3c0-0.2-0.9,0.2-2,0.8c-1.1,0.6-2.3,1.2-2.8,1.2c-0.5,0-0.8,0.2-0.8,0.5c0,1.1-1.4,1-2.4-0.2c-0.5-0.6-1.2-1.2-1.4-1.2c-0.2,0-1.6,1-3.1,2.3c-1.5,1.2-3,2.3-3.4,2.3c-0.4,0-1.2-0.7-1.9-1.5l-1.2-1.5l1.1-0.3c1.1-0.3,1.1-0.3-1.9-1.3c-2.2-0.7-2.3-0.6-0.8,0.6c0.7,0.6,1.2,1.4,1.2,1.6c0,0.2,0.1,0.7,0.3,1.1c0.1,0.5-0.1,0.8-0.7,1c-0.5,0.1-1,0.6-1.1,1.1c-0.2,0.9-1.8-2.3-1.9-3.8c0-0.5-0.5-1-1.1-1.2c-1.3-0.5-1.3-0.1,0.1,2.1c1.4,2.3,1.4,3,0.1,2.9c-1-0.1-1.1,0.1-1,2.1c0,1.7-0.1,2.2-0.6,1.9c-0.3-0.1-1.2-0.2-1.8-0.2c-0.7,0-1.1-0.2-0.9-0.5c0.2-0.3-0.1-0.8-0.6-1.2c-0.6-0.4-1-1.1-1-1.6c0-1.5-0.6-2.3-1.6-2.3c-1.4,0-2.1-0.8-2.1-2.4c0-3.6-1.6,1.4-2.1,6.7c-0.2,2.6-0.2,2.6,1.5,3.8c1.9,1.3,1.2,1.6-1.4,0.5c-1.4-0.6-1.6-0.9-1.9-3.1c-0.3-1.9-0.5-2.2-0.6-1.2c-0.1,0.7,0,1.9,0.3,2.7c0.3,0.8,0.4,1.6,0.2,1.7c-0.4,0.4-2-1.8-2.1-2.9c0-0.9,0-0.9-0.5,0.1c-0.4,1-0.5,1.1-1.1,0.5c-0.9-0.9-2.5-5.5-2.5-7.1c0-0.7,0.8-2.2,2.1-3.8c1.6-1.9,2.9-2.9,5.3-4.1c1.8-0.9,3.3-1.6,3.4-1.6c0.1,0,0,0.8-0.1,1.7l-0.2,1.8l1.7-2.3c1.4-1.9,1.8-2.3,3-2.2c1.1,0.1,1.3,0,1.3-0.9c0-0.8,0.3-1.1,1.5-1.4c0.8-0.1,1.5-0.1,1.5,0.1s0.4,0.4,0.8,0.4c1.2,0,13.8-6.3,12.7-6.4c-0.6,0-1.2-0.3-1.3-0.5c-0.2-0.3,0.6-0.5,2.2-0.5c2.4,0,2.5,0.1,5.2,2.8c2.8,2.8,2.8,2.8,3.8,7.5c0.6,2.6,1,4.1,1,3.3c0-0.8,0.3-2.2,0.6-3.1c0.4-1.6,0.3-2-1.4-4.8c-1.9-3.3-4.5-6-7.7-8.1c-1.5-1-2.3-1.2-4.6-1.2c-1.5,0-3.6,0.3-4.8,0.6c-1.2,0.3-4.2,0.5-6.9,0.4c-3.5-0.1-5.4,0.1-7.1,0.6c-3.3,1.1-3.7,0.6-0.8-1.1C83.9,90.2,90.7,89.3,97.7,91.4z M25.7,93.7c0,0.3-2.2,3.1-4.8,6.3c-5.3,6.3-5.7,7.5-3.8,9.6c0.6,0.6,15.8,13.4,33.7,28.4c28.3,23.5,35.9,30.1,32.9,28.3c-0.9-0.5-67.1-55.7-68.9-57.5l-1.4-1.3l5.8-7.1C24.7,93.6,25.7,92.6,25.7,93.7z M38.9,108.5l11.5,13.2v4.4c0,4.1-0.1,4.3-0.8,3.8c-0.4-0.3-7-5.8-14.6-12.1c-8.2-6.8-14-12-14.4-12.8c-0.4-0.9-0.4-1.6,0-2.3c0.7-1.5,6.1-7.8,6.5-7.6C27.3,95.3,32.6,101.3,38.9,108.5z M68.5,107.7c0.6,0.8,1,1.7,1,1.8c0,0.5-3.3,4.7-3.8,4.9c-0.3,0.1-0.4-0.7-0.1-2.3c0.4-2.9,1.2-5.9,1.6-5.9C67.3,106.1,67.9,106.8,68.5,107.7z M57.5,112.5c0.9,1.8,0.8,1.9-0.3,4.7c-0.5,1.2-0.7,1.5-1,0.9c-0.6-1-1.1-5.9-0.7-6.9C55.8,110,56.4,110.4,57.5,112.5z M61.2,119.8c1.1,2.3,2.5,5.2,3.1,6.5c1.1,2.4,1.1,2.4,0.1,1.9c-0.5-0.3-1.1-0.8-1.2-1.2c-0.2-0.6-0.4-0.6-0.9-0.1c-0.6,0.5-1,0.3-2.3-1.2c-0.9-1-2-2.6-2.5-3.7l-0.9-1.9l1-2.2c0.6-1.2,1.1-2.2,1.3-2.2C59,115.8,60,117.6,61.2,119.8z M119.3,128c3.3,6.7,5.9,12.4,5.9,12.6c0,0.5-16.7,1.9-22.4,1.9c-3.3,0-4.4,0.2-5.6,0.9c-1.9,1.2-2.9,3.1-2.9,5.7c0,5.2,2.9,7.9,11.3,10.6c6.7,2.1,14.2,2.7,21.9,1.7c5.4-0.7,8.3-0.1,9.4,2.2c1,2.1,1,4,0,4.9c-1.2,1.1-31.9,16-32.9,16c-0.4,0-1.2-0.1-1.6-0.3c-0.7-0.3-25.9-49.9-25.5-50.2c0.1-0.1,1.1,0.2,2.2,0.6c2.8,1,9.5,1.3,13,0.6c4-0.8,9.7-3.7,12.9-6.5c3.1-2.8,6.1-7.1,7.1-10.5c0.4-1.3,0.8-2.4,1-2.4C113.3,115.8,116,121.3,119.3,128z M99.5,117.7c0.3,0.6,0.3,0.9,0,0.9c-0.3,0-0.7-0.4-1-0.9c-0.3-0.6-0.3-0.9,0-0.9C98.8,116.7,99.2,117.2,99.5,117.7z M96.7,119.1c-0.3,0.6-0.6,1.4-0.7,1.8c-0.2,0.5-0.7,0.8-1.3,0.8s-1.5,0.1-1.9,0.3c-0.5,0.2,0-0.4,1-1.2c1-0.9,2-1.8,2.3-2.1C96.8,117.8,97.1,118,96.7,119.1z M149.5,121.5c2.3,1.1,6.7,3.5,9.9,5.2c10.9,6.1,25.1,13.5,29.7,15.4c5.6,2.3,11.8,3.9,16.8,4.3l3.8,0.4l0,11.3c0,6.2,0.2,13.4,0.4,15.9l0.3,4.5h-1.4c-0.7,0-2.3-0.2-3.4-0.5c-1.8-0.5-2.1-0.4-4.7,1.4c-1.6,1.1-4.3,2.4-6.1,3.1c-2.9,1.1-4.1,1.2-8.6,1.2c-5.8,0-9.9-0.7-17.1-3c-4.1-1.3-4.5-1.5-4.5-2.5v-1.1l2.7,1.1c6,2.4,12.3,2.7,16.6,0.5c1.8-0.9,3.9-2.6,3.3-2.6c-0.1,0-1.7,0.3-3.4,0.7c-4.1,0.9-8.1,0.9-11.5,0c-4-1-11.2-4.7-17.1-8.7c-6.3-4.3-12-7.2-17.9-9.1c-4.5-1.4-4.6-1.4-9.2-0.9c-6.2,0.7-10.9,0.7-15.6-0.1c-5.5-1-11.4-3.2-13-4.9l-1.3-1.4l1.8,0.8c2.7,1.1,6.4,0.7,8-0.9c1-1,1.2-1.7,1.2-3.5c0-2.7-1.1-2.3,11.8-3.5c7.9-0.7,8.8-0.7,11.2,0c3.8,1.1,7.6,1.4,10.7,0.8c4.3-0.9,16.1-4.2,16.6-4.7c0.3-0.3,0.1-0.4-0.7-0.2c-1.2,0.3-9.8,1.5-13.2,1.8c-1.8,0.2-2.1,0.1-2.9-1.1c-0.9-1.3-0.9-1.4-0.2-4.8c0.4-1.9,1-4.4,1.4-5.6c0.4-1.2,0.6-2.3,0.5-2.4c-0.2-0.3-2.9,5.1-3.5,7c-0.3,1-0.6,2-0.8,2.2c-0.2,0.4-10.7-11.5-10.7-12.1c0-1,12.5-5.9,15-5.9C144.8,119.5,147.2,120.4,149.5,121.5z M54.5,128.5c0.6,0.3,0.9,0.9,0.9,1.4c-0.1,2.2-0.9,4.9-1.3,4.9c-0.6,0.1-2-4.1-2.1-6.3c0-1.6,0.1-1.7,0.7-1.2C53.1,127.7,53.9,128.2,54.5,128.5z M134.5,134.9c2.6,3,5.2,6,5.7,6.6c0.8,0.8,0.8,1,0.2,0.9c-0.9-0.2-10.8-11.6-11.8-13.6c-0.7-1.4-0.7-1.4,0.2-0.5C129.3,129,131.8,131.9,134.5,134.9z M60.6,133.4c1.8,2,3.5,4.4,3.8,5.2c1.1,2.6,1.3,2.8,2.3,3.1c1.6,0.4,1.4,1.2-0.3,1.3c-1.3,0.1-1.7-0.1-2.9-2c-0.7-1.2-1.4-1.9-1.4-1.5c0,0.4,0.6,1.6,1.4,2.6c0.8,1.1,1.3,1.9,1.2,1.9c-0.7,0-3-1.5-3-2c0-0.3-0.2-0.1-0.5,0.5l-0.4,1.1l-1.4-1c-0.8-0.6-2.3-2.1-3.3-3.5c-1.5-2-1.8-2.6-1.4-3.3c0.3-0.5,0.8-2,1.2-3.5c0.4-1.4,0.9-2.6,1.1-2.6C57.2,129.6,58.8,131.3,60.6,133.4z M225.6,155.8c0.6,13.6,1.6,29.4,2.2,33.4c0.2,1.7,0.2,1.7-1.3,1.9c-0.8,0.1-3.5,0.4-6,0.5c-4.4,0.3-4.5,0.3-4.9-0.8c-0.8-2.2-1.9-10-2.4-17.6c-0.6-8-0.4-29.8,0.3-31.2c0.3-0.7,1-0.8,5.9-0.8h5.6L225.6,155.8z M106.9,146.2c1.3,0.7,1.2,3-0.3,4.5c-1.1,1.1-1.4,1.2-3.9,1c-1.5-0.1-3-0.5-3.4-0.8c-1-0.8-1-3.5,0-4.4C100.1,145.6,105.4,145.5,106.9,146.2z M75.7,150.7c1,1.1,1.7,2.1,1.6,2.2c-0.1,0.1-1.3-0.8-2.7-2.1c-1.9-1.7-2.3-2.2-1.6-2.2C73.5,148.6,74.7,149.6,75.7,150.7z M152,170.1l1.6,1.1h-1.8c-1.1,0-3,0.3-4.4,0.6c-1.8,0.5-2.7,0.5-3.1,0.2c-1-0.8-0.7-1.1,1.7-2.2c1.6-0.7,2.3-1.3,2.1-1.8C147.8,167.3,148.2,167.5,152,170.1z M142.2,174.8c1.3,1.9,1.3,2.4,0.2,3.7c-1.3,1.7-2.1,0.8-1.8-2l0.3-2.3l-2.4,0.2l-2.4,0.2l1.6-0.8C139.9,172.7,140.9,172.9,142.2,174.8z M157.2,174.9c2.2,0.6,4,2.3,4,3.8c0,1.9-0.9,1.8-1.2-0.2c-0.3-2-0.8-2.2-4-1.4c-1.9,0.6-4.1,2.8-4.1,4.3c0,0.9-0.5,1.1-3.6,1.8c-6.7,1.5-8,1.5-10.4,0.1c-1.2-0.7-2-1.3-1.9-1.4c0.1-0.1,1.6,0,3.2,0.3c2.8,0.5,3.1,0.5,4.4-0.4c1.5-1.1,2.9-3.6,2.9-5.3c0-0.9,0.3-1.2,1.3-1.5c0.7-0.1,1.5-0.3,1.7-0.4C150.5,174.2,155.6,174.4,157.2,174.9z M139.1,177.4c0,1.5-0.1,1.7-1,1.4c-0.6-0.1-2-0.4-3.3-0.6c-1.8-0.3-2.1-0.5-1.7-1c0.3-0.3,1.3-0.8,2.4-1.1C138.9,175.5,139.1,175.5,139.1,177.4z M158.7,179.5c0.2,0.8,0.2,1.5,0.1,1.6c-0.1,0.1-1.4,0.3-2.8,0.5c-2.2,0.3-2.6,0.2-2.6-0.4c0-0.8,1.2-2,2.8-2.6C158,177.8,158.3,177.9,158.7,179.5z M123.4,181c0,0.2-7.6,9.3-8.8,10.6c-0.2,0.2-1.4-0.5-2.7-1.6c-2.4-2-2.9-3-0.8-1.7c0.6,0.4,1.8,0.7,2.6,0.7c1.2,0,1.9-0.5,3.6-2.4C121.5,182,123.4,180.2,123.4,181z M117.9,184c-0.4,0.2-0.9,0.5-1.2,0.5c-0.2,0-0.1-0.2,0.2-0.5c0.4-0.2,0.9-0.5,1.2-0.5C118.4,183.6,118.3,183.8,117.9,184z"/><path fill="#000000" d="M68.3,71.3c-4.7,2-5.8,8.2-2.1,11.8c5.2,5.2,13.6,0.6,12.3-6.7C77.7,72.1,72.5,69.5,68.3,71.3z M75.2,74.3c1.2,1.2,1.4,1.8,1.4,3.7c0,2-0.2,2.5-1.5,3.8c-1.3,1.3-1.8,1.5-3.8,1.5c-2,0-2.5-0.2-3.8-1.5C66.3,80.5,66,80,66,78.1c0-2.4,1.2-4.2,3.2-5.2C71,72.2,73.7,72.8,75.2,74.3z"/><path fill="#000000" d="M91.8,106.7c-0.1,0.2,0.1,0.8,0.6,1.3c0.7,0.8,0.7,1.1,0.2,1.9c-0.5,0.8-0.5,1.1,0.2,1.8c0.9,1,2.4,1.1,4.9,0.4c1.4-0.4,1.7-0.6,1.3-1.3c-0.2-0.4-0.7-1.6-1.2-2.5c-0.4-1-1.1-1.8-1.5-1.8C93.8,106.3,92,106.4,91.8,106.7z M96.2,110c0,1,0,1-0.7,0.1c-0.9-1.2-0.9-1.7,0-1.4C95.9,108.9,96.2,109.5,96.2,110z"/></g></g></g>
</svg>