<?xml version="1.0" encoding="utf-8"?>
<!-- Svg Vector Icons : http://www.onlinewebfonts.com/icon -->
<!DOCTYPE svg PUBLIC "-//W3C//DTD SVG 1.1//EN" "http://www.w3.org/Graphics/SVG/1.1/DTD/svg11.dtd">
<svg version="1.1" xmlns="http://www.w3.org/2000/svg" xmlns:xlink="http://www.w3.org/1999/xlink" x="0px" y="0px" viewBox="0 0 256 256" enable-background="new 0 0 256 256" xml:space="preserve">
<metadata> Svg Vector Icons : http://www.onlinewebfonts.com/icon </metadata>
<g><g><path fill="#000000" d="M167.8,75.4c0.8-1.5,0.8-4.6,0-6.9c-1.5-3.1-5.3-3.8-10.7-3.8h-0.8H67.2h-3.8c-7.6,0-11.4,3.8-11.4,7.6c0,2.3,1.5,4.6,3.8,6.1c2.3,0.8,4.6,2.3,7.6,2.3h93.7C162.4,80.8,166.2,78.5,167.8,75.4L167.8,75.4L167.8,75.4z M51.9,104.4c0,2.3,1.5,5.3,3.8,6.1c2.3,0.8,4.6,1.5,7.6,1.5h72.4l1.5-1.5c2.3-2.3,4.6-4.6,6.9-6.9l9.2-7.6H63.3C55.7,96.8,51.9,100.6,51.9,104.4L51.9,104.4L51.9,104.4z M208.1,97.5c2.3,0.8,4.6,2.3,6.9,3.8l6.9,3.8V34.3c0-13-11.4-16.8-19-16.8l0,0H32.1l0,0c-7.6,0-22.1,4.6-22.1,16.8v187.5c0,12.2,14.5,16.8,22.1,16.8l0,0h170.7c13.7,0,19-9.9,19-16.8V205l-9.9-8.4l-6.9,3.1v22.1c0,0,0,0.8-0.8,1.5c-0.8,0.8-0.8,0-2.3,0H32.1c-0.8,0-5.3,1.5-5.3-1.5V34.3c0-0.8,2.3-0.8,5.3-0.8h170.7c0.8,0,3.1-1.5,3.1,0.8v62.5L208.1,97.5L208.1,97.5L208.1,97.5z M245.5,194.3l-28.9-27.4c4.6-6.9,6.9-14.5,6.9-22.9c0-24.4-20.6-43.4-46.5-43.4s-46.5,19.8-46.5,43.4c0,24.4,20.6,43.4,46.5,43.4c11.4,0,21.3-3.8,29-9.9l28.2,26.7c1.5,1.5,3.8,1.5,5.3,0l5.3-5.3C246.3,198.1,246.3,195.8,245.5,194.3L245.5,194.3L245.5,194.3L245.5,194.3z M143.4,144.8c0-17.5,15.2-32,33.5-32s33.5,14.5,33.5,32c0,17.5-15.2,32-33.5,32C157.9,176,143.4,162.3,143.4,144.8L143.4,144.8L143.4,144.8L143.4,144.8z"/></g></g>
</svg>