<?xml version="1.0" encoding="utf-8"?>
<!-- Svg Vector Icons : http://www.onlinewebfonts.com/icon -->
<!DOCTYPE svg PUBLIC "-//W3C//DTD SVG 1.1//EN" "http://www.w3.org/Graphics/SVG/1.1/DTD/svg11.dtd">
<svg version="1.1" xmlns="http://www.w3.org/2000/svg" xmlns:xlink="http://www.w3.org/1999/xlink" x="0px" y="0px" viewBox="0 0 256 256" enable-background="new 0 0 256 256" xml:space="preserve">
<metadata> Svg Vector Icons : http://www.onlinewebfonts.com/icon </metadata>
<g><g><path fill="#000000" d="M198.8,37.5v15.7h31.5v157.3H25.7V53.3h31.5V37.5H10v188.8h236V37.5L198.8,37.5L198.8,37.5z"/><path fill="#000000" d="M104.4,37.5h47.2v15.7h-47.2V37.5L104.4,37.5z"/><path fill="#000000" d="M72.9,29.7h15.7v31.5H72.9V29.7z"/><path fill="#000000" d="M167.3,29.7h15.7v31.5h-15.7V29.7z"/><path fill="#000000" d="M104.4,100.5h15.7v15.7h-15.7V100.5z"/><path fill="#000000" d="M135.9,100.5h15.7v15.7h-15.7V100.5z"/><path fill="#000000" d="M167.3,100.5h15.7v15.7h-15.7V100.5z"/><path fill="#000000" d="M198.8,100.5h15.7v15.7h-15.7V100.5z"/><path fill="#000000" d="M41.5,131.9h15.7v15.7H41.5V131.9z"/><path fill="#000000" d="M72.9,131.9h15.7v15.7H72.9V131.9z"/><path fill="#000000" d="M104.4,131.9h15.7v15.7h-15.7V131.9z"/><path fill="#000000" d="M135.9,131.9h15.7v15.7h-15.7V131.9z"/><path fill="#000000" d="M167.3,131.9h15.7v15.7h-15.7V131.9z"/><path fill="#000000" d="M198.8,131.9h15.7v15.7h-15.7V131.9z"/><path fill="#000000" d="M41.5,163.4h15.7v15.7H41.5V163.4z"/><path fill="#000000" d="M72.9,163.4h15.7v15.7H72.9V163.4z"/><path fill="#000000" d="M104.4,163.4h15.7v15.7h-15.7V163.4z"/><path fill="#000000" d="M135.9,163.4h15.7v15.7h-15.7V163.4z"/><path fill="#000000" d="M167.3,163.4h15.7v15.7h-15.7V163.4z"/></g></g>
</svg>