<?xml version="1.0" encoding="utf-8"?>
<!-- Svg Vector Icons : http://www.onlinewebfonts.com/icon -->
<!DOCTYPE svg PUBLIC "-//W3C//DTD SVG 1.1//EN" "http://www.w3.org/Graphics/SVG/1.1/DTD/svg11.dtd">
<svg version="1.1" xmlns="http://www.w3.org/2000/svg" xmlns:xlink="http://www.w3.org/1999/xlink" x="0px" y="0px" viewBox="0 0 256 256" enable-background="new 0 0 256 256" xml:space="preserve">
<metadata> Svg Vector Icons : http://www.onlinewebfonts.com/icon </metadata>
<g><g><path fill="#000000" d="M102.6,167.3l0.2,5.5l-3.2,5.4l9.9,43.4l-14,6.8l-14-6.8l9.9-43.4l-3.3-5.4l0.2-5.5C94.6,167,96.4,167,102.6,167.3L102.6,167.3z"/><path fill="#000000" d="M92.7,16.4h137.6c4.3,0,8.2,1.8,11,4.6c2.8,2.8,4.6,6.7,4.6,11V118c0,4.3-1.8,8.2-4.6,11h0l0,0c-2.8,2.8-6.7,4.6-11,4.6h-60.8L148,150.5l-7.7,6l1.5-9.6l1.8-11.8l7.6,1.2l-0.3,2.1l35.3-27.7l4.8,6.1l-11.6,9.1h51c2.2,0,4.1-0.9,5.6-2.3l0,0c1.4-1.4,2.3-3.4,2.3-5.6V32c0-2.2-0.9-4.1-2.3-5.6c-1.4-1.4-3.4-2.3-5.6-2.3H92.7c-2.2,0-4.2,0.9-5.6,2.3c-1.4,1.4-2.3,3.4-2.3,5.6v5.6h-7.7V32c0-4.3,1.8-8.2,4.6-11h0C84.6,18.2,88.4,16.4,92.7,16.4L92.7,16.4z"/><path fill="#000000" d="M190.8,81.5v5.9H223v-5.9H190.8z"/><path fill="#000000" d="M156.8,81.5v5.9h28.9v-5.9H156.8z"/><path fill="#000000" d="M206.8,61.6v5.9h16.3v-5.9H206.8z"/><path fill="#000000" d="M193.8,61.6v5.9h6.5v-5.9H193.8z"/><path fill="#000000" d="M174.8,61.6v5.9h13.1v-5.9H174.8z"/><path fill="#000000" d="M156.8,61.6v5.9h13v-5.9H156.8z"/><path fill="#000000" d="M156.8,43.2V49h66.2v-5.9H156.8z"/><path fill="#000000" d="M140.3,94.9c2.6-35.3-2.3-55.6-44.6-49.9c-14.4,1.9-30-2.3-38.9,4.2c-11.2,10.5-12,26.4-8.9,45c-0.7,0.4-1.3,0.8-2,1.2l-2,1.3l0,2.4c-0.1,6.2,0.7,11.4,2.3,15.4c1.5,3.6,3.8,6.4,6.7,8c3.6,12.1,8.7,21.2,15.1,27.8c7,7.2,15.4,11.2,24.9,12.8l0.8,0.1l0.8-0.2c10.5-2.2,18.9-6.5,25.6-13.5c6.2-6.6,10.8-15.4,14.2-27.2c2.9-1.7,5-4.4,6.5-8c1.6-4,2.3-9.1,2.2-15.2l0-2.4l-2-1.3C140.8,95.2,140.6,95,140.3,94.9L140.3,94.9z"/><path fill="#000000" d="M53.2,103.4c0.2,3,0.7,5.5,1.5,7.5c0.8,2,2,3.3,3.4,3.7l2.5,0.8l0.7,2.5c3.2,11.6,7.7,20.1,13.4,25.9c5.3,5.4,11.7,8.6,18.9,10c8.2-1.9,14.7-5.2,19.9-10.6c5.4-5.8,9.5-14,12.6-25.3l0.6-2.4l2.3-0.8c1.4-0.5,2.5-1.8,3.3-3.8c0.8-2,1.3-4.4,1.5-7.4c-1.3,0-2.7,0-4.3,0.2l-0.6-2.1l-1.3,0.1l-0.8-4c-0.6-3.1-1.5-6-2.7-8.7c-3.5,1.5-7.5-1.3-11.1-3.3l-1.8,5.7l-2.9-0.4l0.4-3.5l-3.1,5l-2.7-0.6l2.7-7.3l0,0c-15.1,13.4-32.8,12.5-42.6,5.1c-0.3,0.8-0.6,1.5-0.9,2.3c-0.7,2.7-1.4,6.3-2.1,9l-0.2,1h-0.1c-0.1,0.6-0.3,1-0.4,1.4C57.9,102.4,55.4,103.1,53.2,103.4L53.2,103.4z"/><path fill="#000000" d="M37.5,163h-1.9l-1.4,1.3C24,173.1,18.1,186,14.6,199.1c-3.3,12.8-4.3,25.8-4.5,35.4l-0.1,5.1h5.1h157.5h4.5l0.5-4.5c1.3-11.6-0.7-26.2-5-39.6c-4.1-12.8-10.4-24.7-18.2-32l-1.5-1.4l-2,0.1l-24.2,0.8v10l22.3-0.8c5.8,6.2,10.7,15.9,14.1,26.4c3.3,10.5,5.2,21.6,4.9,31.1c-121.8,0-23,0-147.7,0c0.4-8.3,1.5-18.2,4-28c2.8-10.8,7.5-21.3,15.1-28.6l20.3,0.2v-9.9L37.5,163z"/></g></g>
</svg>