<?xml version="1.0" encoding="utf-8"?>
<!-- Svg Vector Icons : http://www.onlinewebfonts.com/icon -->
<!DOCTYPE svg PUBLIC "-//W3C//DTD SVG 1.1//EN" "http://www.w3.org/Graphics/SVG/1.1/DTD/svg11.dtd">
<svg version="1.1" xmlns="http://www.w3.org/2000/svg" xmlns:xlink="http://www.w3.org/1999/xlink" x="0px" y="0px" viewBox="0 0 256 256" enable-background="new 0 0 256 256" xml:space="preserve">
<metadata> Svg Vector Icons : http://www.onlinewebfonts.com/icon </metadata>
<g><g><path fill="#000000" d="M188.3,64.3H67.7c-6.7,0-12.1,5.4-12.1,12.1v88.5c0,6.7,5.4,12.1,12.1,12.1h44.2l16.1,16.1l16.1-16.1h44.2c6.7,0,12.1-5.4,12.1-12.1v-14.4h0c-0.1-2.1-1.8-3.8-4-3.8c-2.1,0-3.8,1.7-4,3.8h0v10.4c0,4.5-3.6,8-8,8h-44.2L128,181l-12.1-12.1H71.7c-4.4,0-8-3.6-8-8V80.4c0-4.4,3.6-8,8-8h112.6c4.4,0,8,3.6,8,8v38.2h0.1c0,0.1-0.1,0.3-0.1,0.4c0,2.2,1.8,4,4,4c2.2,0,4-1.8,4-4c0-0.1-0.1-0.3-0.1-0.4h0.1V76.4C200.4,69.7,195,64.3,188.3,64.3z"/><path fill="#000000" d="M167.7,101.5H91.8c-2,0-3.7,1.7-3.7,3.8c0,2.1,1.6,3.8,3.7,3.8h75.9c2,0,3.7-1.7,3.7-3.8C171.4,103.2,169.7,101.5,167.7,101.5z"/><path fill="#000000" d="M167.7,127.3H91.8c-2,0-3.7,1.7-3.7,3.8c0,2.1,1.6,3.8,3.7,3.8h75.9c2,0,3.7-1.7,3.7-3.8C171.4,129,169.7,127.3,167.7,127.3z"/><path fill="#000000" d="M236.7,82.1c-5.9-14.1-14.4-26.7-25.3-37.5c-10.8-10.8-23.5-19.3-37.5-25.3c-14.6-6.2-30-9.3-45.9-9.3s-31.4,3.1-45.9,9.3C68,25.2,55.4,33.7,44.6,44.6C33.7,55.4,25.2,68,19.3,82.1c-6.2,14.6-9.3,30-9.3,45.9s3.1,31.4,9.3,45.9c5.9,14,14.4,26.7,25.3,37.5c10.8,10.8,23.5,19.3,37.5,25.3c14.6,6.2,30,9.3,45.9,9.3s31.4-3.1,45.9-9.3c14.1-5.9,26.7-14.4,37.5-25.3c10.8-10.8,19.3-23.5,25.3-37.5c6.2-14.6,9.3-30,9.3-45.9S242.9,96.6,236.7,82.1z M128,238c-60.7,0-110-49.3-110-110C18,67.3,67.3,18,128,18c60.7,0,110,49.3,110,110C238,188.7,188.7,238,128,238z"/></g></g>
</svg>