<?xml version="1.0" encoding="utf-8"?>
<!-- Svg Vector Icons : http://www.onlinewebfonts.com/icon -->
<!DOCTYPE svg PUBLIC "-//W3C//DTD SVG 1.1//EN" "http://www.w3.org/Graphics/SVG/1.1/DTD/svg11.dtd">
<svg version="1.1" xmlns="http://www.w3.org/2000/svg" xmlns:xlink="http://www.w3.org/1999/xlink" x="0px" y="0px" viewBox="0 0 256 256" enable-background="new 0 0 256 256" xml:space="preserve">
<metadata> Svg Vector Icons : http://www.onlinewebfonts.com/icon </metadata>
<g><g><g><path fill="#000000" d="M13.5,11.2c-1,0.6-2.2,1.8-2.7,2.5c-1.2,2-1.1,5.6,0.2,7.6c2.1,3.5-5.4,3.3,94.7,3.3h90.5v29.9v29.9h7.5h7.5V47.3V10.2h-97.9H15.4L13.5,11.2z"/><path fill="#000000" d="M15.3,47.3c-2.2,0.7-4.2,2.8-4.9,5.2c-1.1,3.7,1.3,7.7,5.4,8.8c1.2,0.3,6.2,0.5,12.9,0.4c9.5-0.2,11.1-0.3,12.3-1.1c4.5-2.9,4.5-9.6,0-12.6c-1.2-0.8-2.8-0.9-12.8-1C22,46.9,16.2,47,15.3,47.3z"/><path fill="#000000" d="M13.5,85.1c-4.8,3.2-4.3,10.4,0.9,12.5c2.7,1.1,23.9,1,26.3-0.1c5.1-2.4,5.1-10.4,0-12.8c-1.4-0.7-3.8-0.8-13.6-0.8C15.7,83.9,15.2,84,13.5,85.1z"/><path fill="#000000" d="M164.7,97.9c-16.4,1.9-32,9.4-44.1,21.4c-10.2,10.1-16.8,21.5-20.5,35.3c-1.3,5.2-1.6,7.2-1.8,14.5c-0.2,6.4-0.1,9.8,0.6,13.5c4.5,27.5,25,51.1,51.9,59.6c8.1,2.6,14.3,3.4,23.7,3c11.7-0.4,19.6-2.4,29.8-7.6c7.7-3.9,13.2-7.9,19.5-14.1c5.9-6,10-11.5,13.7-18.5c8.5-16.1,10.6-33,6.4-50.3c-6.4-26.5-28.3-48.3-55-55C180.3,97.5,172.8,97,164.7,97.9z M184.5,113.4c22.3,4.4,39,20.2,45.1,42.7c1.2,4.6,1.3,5.7,1.3,15.6s-0.1,10.9-1.4,15.7c-1.9,6.9-6.6,16.4-10.8,21.7c-11.2,14.1-28.1,21.9-47,21.9c-16.2,0-31.1-6-42.1-17.1c-8.7-8.6-14.3-19.7-16.3-31.9c-4.6-28.3,9.6-54.7,35.2-65.3C159.4,112.1,172.4,111,184.5,113.4z"/><path fill="#000000" d="M167.9,126.1c-1,0.5-2.3,1.5-2.8,2.3c-1,1.4-1.1,2.2-1.2,23c-0.1,14.2,0,22.1,0.4,23.4c0.3,1,1.3,2.6,2.3,3.5l1.9,1.6h22.9h22.9l1.8-1.6c4.2-3.7,3.1-10-2.1-12.1c-1.3-0.6-5.4-0.7-18.8-0.7h-17v-17.6c0-16.8-0.1-17.7-1-19.3C175.2,125.5,171.2,124.4,167.9,126.1z"/><path fill="#000000" d="M14.2,121.6c-1.8,0.8-2.4,1.5-3.3,3.4c-1.4,3.2-1,5.5,1.6,8l2,2H27c11.6,0,12.7-0.1,14.2-1c4.9-2.9,4.1-10.4-1.2-12.7c-1.2-0.5-4.5-0.7-12.6-0.7C17.7,120.6,16.2,120.7,14.2,121.6z"/><path fill="#000000" d="M14.6,158.1c-1.4,0.5-3.6,2.9-4.2,4.6c-1.1,3.3,0.6,7.1,3.9,8.6c2.4,1.1,23.1,1.2,25.7,0.1c2.7-1.1,4.1-3,4.4-5.9c0.3-3-0.8-5.4-3.1-6.8c-1.5-0.9-2.6-1-13.8-1C20.9,157.8,15,157.9,14.6,158.1z"/><path fill="#000000" d="M14.3,195c-3.5,1.5-5.2,6.3-3.5,9.6c0.5,1,1.7,2.3,2.7,2.9c1.7,1.1,2.1,1.2,13.9,1.2c11.1,0,12.3-0.1,13.8-1c4.7-2.9,4.2-10-1-12.7C38.3,194,16.6,194,14.3,195z"/><path fill="#000000" d="M23.1,231.4c-7.2,0.3-9.1,0.5-10.2,1.2c-4.8,3.1-3.4,11.1,2.2,12.8c1.2,0.3,16.8,0.5,45.1,0.4l43.3-0.2l0.2-7.1l0.2-7.1H73.3c-16.9,0-33.1-0.1-36-0.2C34.3,231.2,27.9,231.2,23.1,231.4z"/></g></g></g>
</svg>